<svg xmlns="http://www.w3.org/2000/svg" viewBox="0 0 190.36 54.67"><defs><style>.cls-1{fill:#eff220;}.cls-2{fill:#f2f2f2;}</style></defs><title>chawad electro</title><g id="Layer_2" data-name="Layer 2"><g id="Layer_1-2" data-name="Layer 1"><path class="cls-1" d="M124.55,1.34,114,32.63,105.51,7.55l-.27,0-8.35,24.7-.25,0L86.18,1.34c.93,0,1.75,0,2.57,0s.66.58.8,1q3.35,9.93,6.69,19.86c.12.37.27.74.44,1.23a2.27,2.27,0,0,0,.59-1.17q3.35-9.93,6.68-19.86c.25-.74.52-1.09,1.39-1.08a1.33,1.33,0,0,1,1.49,1.1c2.2,6.63,4.45,13.24,6.68,19.86.12.36.27.71.5,1.3.23-.59.39-.93.51-1.29,2.17-6.47,4.36-12.93,6.47-19.43.38-1.18.89-1.74,2.15-1.51A8.7,8.7,0,0,0,124.55,1.34Z"/><path class="cls-1" d="M157.23,15.79c0-4.44,0-8.88,0-13.32,0-.86.16-1.17,1.1-1.15,3,.07,6,0,9,0a14.4,14.4,0,0,1,2.34,28.55c-3.17.55-6.39.18-9.58.24-2.85.06-2.85,0-2.85-2.83V15.79Zm3,0c0,3.47,0,6.95,0,10.42,0,.79.24,1,1,1,1.92,0,3.83,0,5.75,0a11.41,11.41,0,0,0,2.24-22.59c-2.75-.57-5.58-.19-8.37-.26-.79,0-.62.57-.62,1C160.27,8.8,160.28,12.28,160.28,15.75Z"/><path class="cls-1" d="M32.19,15.7c0-4.4,0-8.8,0-13.2,0-.95.25-1.31,1.19-1.17a3.45,3.45,0,0,0,1,0c.76-.1.94.24.93,1,0,3.36,0,6.72,0,10.08,0,.88.21,1.16,1.13,1.15q6.78-.07,13.56,0c1,0,1.2-.34,1.19-1.25,0-3.28,0-6.56,0-9.84,0-.91.24-1.24,1.13-1.1a3.58,3.58,0,0,0,1,0c.65-.07.9.13.89.84q0,13.56,0,27.11c0,.81-.33.88-1,.89-2,0-2,0-2-1.91,0-3.6,0-7.2,0-10.8,0-.8-.24-1-1-1q-6.9,0-13.8,0c-.86,0-1.06.27-1.05,1.09,0,3.8,0,7.6,0,11.4,0,.88-.14,1.27-1.16,1.23-1.91-.08-1.91,0-1.91-1.88q0-6.3,0-12.6Z"/><path class="cls-1" d="M122.65,30.16,138.34,0,154,30.14h-3c-.54,0-.6-.47-.77-.8-1.37-2.62-2.74-5.23-4.05-7.88a1.39,1.39,0,0,0-1.45-.92q-6.53.06-13.07,0a1.22,1.22,0,0,0-1.28.78c-1.3,2.56-2.69,5.08-4,7.66a1.72,1.72,0,0,1-2,1.19A14.07,14.07,0,0,0,122.65,30.16Zm15.7-23.82c-1.9,3.63-3.71,7.08-5.53,10.53-.35.66,0,.71.52.71,3.31,0,6.62,0,9.93,0,.87,0,.8-.31.48-.91C142,13.3,140.21,9.91,138.35,6.34Z"/><path class="cls-1" d="M56.89,30.16,72.58,0l7.28,14C82.48,19,85.07,24,87.72,29c.51,1,.35,1.06-.69,1.17A2.64,2.64,0,0,1,84,28.32c-1.06-2.36-2.37-4.61-3.52-6.94a1.31,1.31,0,0,0-1.38-.84q-6.53,0-13.07,0a1.31,1.31,0,0,0-1.36.85c-1.28,2.53-2.67,5-3.89,7.55a1.79,1.79,0,0,1-2.1,1.23A14.35,14.35,0,0,0,56.89,30.16ZM72.59,6.33c-1.91,3.64-3.71,7.1-5.53,10.55-.36.69,0,.7.54.7q5,0,9.93,0c.67,0,.87-.13.52-.81C76.24,13.36,74.46,9.93,72.59,6.33Z"/><path class="cls-1" d="M26.89,8c-1.29,0-2.36,0-3.43,0-.65,0-1-.51-1.39-.85A11.44,11.44,0,1,0,7.43,24.69,11.37,11.37,0,0,0,21.25,25c2.39-1.69,2.39-1.69,5.45-1.47-1.8,3.87-9.37,7.36-14.22,6.54A14.6,14.6,0,0,1,.07,17.12,14.51,14.51,0,0,1,9.48,2.23C15.66-.12,22,2.21,26.89,8Z"/><path class="cls-2" d="M123.09,41.52c0,4,0,8,0,12,0,1-.29,1.24-1.2,1.17-.55,0-.65-.27-.65-.74,0-5.12,0-10.23,0-15.35,0-.26-.12-.65.26-.69s1-.23,1.36.17.47.54.7.82l9.91,11.87c.17.21.31.44.46.66l.34-.14c0-1.29,0-2.57,0-3.86,0-2.88,0-5.76-.06-8.63,0-.72.17-.95.93-1s.88.34.88,1c0,4.88,0,9.75,0,14.63,0,.39.28,1-.25,1.16a1.47,1.47,0,0,1-1.7-.49c-2.29-2.77-4.65-5.49-7-8.22l-3.8-4.44Z"/><path class="cls-2" d="M93.35,47.18l4.91,4.12c1.35,1.14,1.36,1.13,1.08,3.07-.42,0-.59-.35-.84-.57-2.32-2-4.63-4.05-6.94-6.08a1.72,1.72,0,0,0-1-.55c-2-.19-2-.21-2,1.84,0,1.6,0,3.2,0,4.79,0,.74-.31.83-.92.84s-.89-.17-.89-.87q0-7.55,0-15.11c0-.69.22-.88.89-.87,2.4,0,4.8,0,7.19,0,3.47.09,5.4,2.65,4.59,6a4.46,4.46,0,0,1-4.43,3.35C94.53,47.21,94.13,47.18,93.35,47.18Zm-1.72-1.67a20.49,20.49,0,0,0,3.63-.19,3,3,0,0,0,2.53-2.8,3,3,0,0,0-2.48-2.83,16.72,16.72,0,0,0-4.06-.18c-2.77,0-2.78,0-2.76,2.78,0,1-.44,2.36.18,3S90.66,45.4,91.64,45.51Z"/><path class="cls-2" d="M175.62,42.55a1.91,1.91,0,0,1-2.39-1c-1.06-1.83-3.94-2.48-6.61-1.74A5.08,5.08,0,0,0,164.33,41a1.94,1.94,0,0,0,.51,3.34,20.13,20.13,0,0,0,5.3,1.37,9.06,9.06,0,0,1,4.22,1.54,3.61,3.61,0,0,1,0,5.72c-2.73,2.21-8.43,2.17-11.13-.08a5.58,5.58,0,0,1-1.79-2.64c-.11-.36-.59-.92.06-1.05s1.36-.49,1.67.37c1,2.76,3.35,3.22,5.81,3.28a6.78,6.78,0,0,0,3.88-1,2.09,2.09,0,0,0,1.11-2,2,2,0,0,0-1.33-1.7,23,23,0,0,0-5.32-1.29,9.44,9.44,0,0,1-4-1.46,3.71,3.71,0,0,1-.55-5.56C166.36,36,173.84,37.53,175.62,42.55Z"/><path class="cls-2" d="M110.24,54.63a8.41,8.41,0,1,1,8.57-8.34A8.49,8.49,0,0,1,110.24,54.63ZM117,46.19a6.66,6.66,0,1,0-6.66,6.74A6.74,6.74,0,0,0,117,46.19Z"/><path class="cls-2" d="M9,46.24c0-2.52,0-5,0-7.56,0-.68.2-.88.88-.88q5.22,0,10.44,0c.67,0,.87.18.88.86s-.22.86-.88.85c-2.84,0-5.68,0-8.52,0-.75,0-1.06.16-1,1a29.81,29.81,0,0,1,0,3.6c-.05.83.27,1,1,1,2.8,0,5.6,0,8.4,0,.63,0,1,0,1,.86s-.39.86-1,.85c-2.8,0-5.6,0-8.4,0-.75,0-1.06.15-1,1,.07,1.44.07,2.88,0,4.32,0,.82.27,1,1,1,2.8,0,5.6,0,8.4,0,.62,0,1,0,1,.85s-.38.86-1,.86c-3.4,0-6.8,0-10.2,0-.88,0-1.06-.28-1-1.09.05-2.44,0-4.88,0-7.32Z"/><path class="cls-2" d="M38.5,46.24c0-2.52,0-5,0-7.56,0-.68.2-.88.88-.88q5.22,0,10.44,0c.67,0,.87.18.88.86s-.22.86-.88.85c-2.84,0-5.68,0-8.52,0-.75,0-1.06.16-1,1a29.81,29.81,0,0,1,0,3.6c-.05.83.27,1,1,1,2.8,0,5.6,0,8.4,0,.63,0,1,0,1,.86s-.39.86-1,.85c-2.8,0-5.6,0-8.4,0-.75,0-1.06.15-1,1,.07,1.44.07,2.88,0,4.32,0,.82.27,1,1,1,2.8,0,5.6,0,8.4,0,.62,0,1,0,1,.85s-.38.86-1,.86c-3.4,0-6.8,0-10.2,0-.88,0-1.06-.28-1-1.09.05-2.44,0-4.88,0-7.32Z"/><path class="cls-2" d="M68.77,41.61a4.1,4.1,0,0,1-3.25-.72,6.42,6.42,0,0,0-7.69-.16,6.65,6.65,0,0,0-2.62,7.4,6.75,6.75,0,0,0,6.22,4.8,5.76,5.76,0,0,0,4-1.31,3.62,3.62,0,0,1,3.09-.79c-1.26,2.45-5.28,4.25-8.31,3.72a8.41,8.41,0,0,1-2.08-16C61.7,36.92,65.53,38,68.77,41.61Z"/><path class="cls-2" d="M158.42,41.64a4.15,4.15,0,0,1-3.13-.73,6.42,6.42,0,0,0-7.78-.12A6.67,6.67,0,0,0,145,48.22a6.78,6.78,0,0,0,6.29,4.7,5.79,5.79,0,0,0,3.9-1.3,3.51,3.51,0,0,1,3.08-.8c-1.08,2.36-5.23,4.24-8.26,3.71a8.41,8.41,0,0,1-1.58-16.22A8.75,8.75,0,0,1,158.42,41.64Z"/><path class="cls-2" d="M77.11,47c0-2.2,0-4.39,0-6.59,0-.71-.14-1-.92-.95-1.19.07-2.39,0-3.59,0-.58,0-1.07.09-1.06-.82s.33-.89,1-.89q5.45,0,10.9,0c.64,0,.92.12.91.84s-.16.92-.87.88c-1.07-.06-2.16.05-3.23,0s-1.42.18-1.4,1.33c.08,4.23,0,8.46,0,12.69,0,.59.15,1.15-.85,1.16s-1-.49-.94-1.17C77.12,51.34,77.11,49.18,77.11,47Z"/><path class="cls-2" d="M23.86,46.17c0-2.44,0-4.87,0-7.31,0-.67,0-1.08.93-1.09s.87.52.87,1.13c0,4.31,0,8.63,0,12.94,0,.92.26,1.12,1.13,1.1,2.79-.06,5.59,0,8.39,0,.63,0,.92.11.9.83s-.15.89-.85.89c-3.47,0-7,0-10.42,0-.85,0-1-.33-1-1,0-2.48,0-5,0-7.43Z"/><path class="cls-2" d="M138.58,46.22c0-2.52,0-5,0-7.55,0-.69.21-.89.89-.87s.93.08.93.83q0,7.61,0,15.22c0,.8-.4.76-1,.79s-.9-.18-.89-.87c0-2.52,0-5,0-7.55Z"/><path class="cls-1" d="M190.36,10.81a9.5,9.5,0,0,1-1,4.2c-.27.59-.6.74-1.21.46s-.47-.67-.26-1.15c2-4.5.35-8.83-4.06-10.81-.52-.24-.94-.38-.6-1.11s.75-.53,1.27-.33A9.3,9.3,0,0,1,190.36,10.81Z"/><path class="cls-1" d="M187.93,11.24a7,7,0,0,1-.83,3c-.31.68-.71.56-1.26.35s-.38-.65-.2-1c1.59-3.53.38-6.65-3.16-8.08-.44-.18-.72-.33-.48-.85s.44-.85,1.16-.6A7.33,7.33,0,0,1,187.93,11.24Z"/><path class="cls-1" d="M185.37,10.95a5.57,5.57,0,0,1-.56,2.18c-.34.67-.78.73-1.44.41-.84-.41-.16-.78,0-1.11A3,3,0,0,0,181.77,8c-.67-.29-.88-.69-.66-1.27s.75-.39,1.22-.21A4.64,4.64,0,0,1,185.37,10.95Z"/><path class="cls-1" d="M166.32,12a8.68,8.68,0,0,1,.95-3.86c.27-.57.54-.93,1.27-.58s.37.75.2,1.17c-1.93,4.55-.34,8.7,4.17,10.8.51.24.81.44.52,1.06s-.54.67-1.12.45A9.57,9.57,0,0,1,166.32,12Z"/><path class="cls-1" d="M168.77,11.6a7.55,7.55,0,0,1,.92-3c.33-.63.67-.45,1.16-.25s.47.53.24,1a5.6,5.6,0,0,0,2.88,8c.48.21,1,.3.65,1.08s-.76.64-1.34.41A7.4,7.4,0,0,1,168.77,11.6Z"/><path class="cls-1" d="M172.7,9.26c.76,0,1.1.52.76,1.19-1.09,2.14-.47,3.77,1.75,4.69.29.12.88,0,.56.72-.23.5-.36.93-1.08.79-2.8-.54-4.4-4.88-2.6-7.07A.79.79,0,0,1,172.7,9.26Z"/></g></g></svg>